#N canvas 0 26 1920 1022 12;
#X obj 544 354 * 2;
#X obj 440 413 <;
#X obj 395 413 >;
#X obj 473 272 i 0;
#X obj 395 440 &&, f 10;
#X obj 533 413 <;
#X obj 488 413 >;
#X obj 488 440 &&, f 10;
#X obj 629 413 <;
#X obj 584 413 >;
#X obj 584 440 &&, f 10;
#X obj 722 413 <;
#X obj 677 413 >;
#X obj 677 440 &&, f 10;
#X obj 640 355 * 3;
#X obj 733 354 * 4;
#X obj 473 215 loadbang;
#X obj 520 272 i 1;
#X obj 336 516 spigot, f 12;
#X obj 429 516 spigot, f 12;
#X obj 525 516 spigot, f 12;
#X obj 618 516 spigot, f 12;
#X obj 229 101 pack f f, f 22;
#X obj 229 137 unpack f f, f 22;
#X obj 229 63 r id @hv_param;
#X obj 310 206 s allid;
#X obj 286 317 r allid;
#X obj 336 559 change;
#X obj 429 559 change;
#X obj 525 559 change;
#X obj 618 559 change;
#X obj 229 162 t b f, f 12;
#X obj 229 206 s idb;
#X obj 255 436 r idb;
#X obj 255 465 f, f 10;
#X obj 31 192 osc~;
#X obj 31 298 dac~;
#X obj 31 271 clip~ -1 1;
#X obj 30 228 *~, f 14;
#X obj 124 198 line~;
#X msg 124 171 \$1 20;
#X obj 31 110 line~;
#X msg 31 83 \$1 20;
#X obj 31 139 *~ 220;
#X obj 31 164 +~ 220;
#X obj 380 63 r value @hv_param;
#X obj 380 206 s allval;
#X obj 305 436 r allval;
#X obj 336 588 s Val1;
#X obj 429 588 s Val2;
#X obj 525 587 s Val3;
#X obj 618 588 s Val4;
#X obj 520 308 / 4;
#X obj 31 54 r Val1;
#X obj 124 141 r Val2;
#X connect 0 0 5 1;
#X connect 0 0 9 1;
#X connect 1 0 4 1;
#X connect 2 0 4 0;
#X connect 3 0 2 1;
#X connect 4 0 18 1;
#X connect 5 0 7 1;
#X connect 6 0 7 0;
#X connect 7 0 19 1;
#X connect 8 0 10 1;
#X connect 9 0 10 0;
#X connect 10 0 20 1;
#X connect 11 0 13 1;
#X connect 12 0 13 0;
#X connect 13 0 21 1;
#X connect 14 0 8 1;
#X connect 14 0 12 1;
#X connect 15 0 11 1;
#X connect 16 0 3 0;
#X connect 16 0 17 0;
#X connect 17 0 52 0;
#X connect 18 0 27 0;
#X connect 19 0 28 0;
#X connect 20 0 29 0;
#X connect 21 0 30 0;
#X connect 22 0 23 0;
#X connect 23 0 31 0;
#X connect 23 1 46 0;
#X connect 24 0 22 0;
#X connect 26 0 1 0;
#X connect 26 0 2 0;
#X connect 26 0 11 0;
#X connect 26 0 12 0;
#X connect 26 0 8 0;
#X connect 26 0 9 0;
#X connect 26 0 5 0;
#X connect 26 0 6 0;
#X connect 27 0 48 0;
#X connect 28 0 49 0;
#X connect 29 0 50 0;
#X connect 30 0 51 0;
#X connect 31 0 32 0;
#X connect 31 1 25 0;
#X connect 33 0 34 0;
#X connect 34 0 18 0;
#X connect 34 0 19 0;
#X connect 34 0 20 0;
#X connect 34 0 21 0;
#X connect 35 0 38 0;
#X connect 37 0 36 0;
#X connect 37 0 36 1;
#X connect 38 0 37 0;
#X connect 39 0 38 1;
#X connect 40 0 39 0;
#X connect 41 0 43 0;
#X connect 42 0 41 0;
#X connect 43 0 44 0;
#X connect 44 0 35 0;
#X connect 45 0 22 1;
#X connect 47 0 34 1;
#X connect 52 0 0 0;
#X connect 52 0 1 1;
#X connect 52 0 6 1;
#X connect 52 0 14 0;
#X connect 52 0 15 0;
#X connect 53 0 42 0;
#X connect 54 0 40 0;
