#N canvas 827 239 527 327 12;
#X obj 30 406 change;
#X obj 30 436 s b1;
#X obj 161 406 change;
#X obj 31 685 change;
#X obj 158 685 change;
#X obj 161 589 change;
#X obj 31 495 change;
#X obj 161 436 s b2;
#X obj 296 48 loadbang;
#X obj 296 76 s initbang;
#X obj 26 87 s fader1;
#X obj 151 87 s fader2;
#X obj 26 161 s fader3;
#X obj 157 161 s fader4;
#X obj 26 237 s fader5;
#X obj 157 237 s fader6;
#X obj 26 300 s fader7;
#X obj 157 300 s fader8;
#X obj 422 557 r initbang;
#X obj 422 645 mtof~;
#X obj 422 586 int 48;
#X obj 422 617 sig~;
#X obj 422 695 *~, f 14;
#X obj 500 611 line~;
#X msg 500 586 \$1 20;
#X obj 417 762 dac~;
#X obj 422 722 clip~ -1 1;
#X obj 500 558 r fader1;
#X obj 577 558 r initbang;
#X obj 577 646 mtof~;
#X obj 577 618 sig~;
#X obj 577 696 *~, f 14;
#X obj 655 612 line~;
#X msg 655 587 \$1 20;
#X obj 572 763 dac~;
#X obj 577 723 clip~ -1 1;
#X obj 734 559 r initbang;
#X obj 734 647 mtof~;
#X obj 734 619 sig~;
#X obj 734 697 *~, f 14;
#X obj 812 613 line~;
#X msg 812 588 \$1 20;
#X obj 729 764 dac~;
#X obj 734 724 clip~ -1 1;
#X obj 889 560 r initbang;
#X obj 889 648 mtof~;
#X obj 889 620 sig~;
#X obj 889 698 *~, f 14;
#X obj 967 614 line~;
#X msg 967 589 \$1 20;
#X obj 884 765 dac~;
#X obj 889 725 clip~ -1 1;
#X obj 417 800 r initbang;
#X obj 417 884 mtof~;
#X obj 417 860 sig~;
#X obj 417 938 *~, f 14;
#X obj 495 854 line~;
#X msg 495 829 \$1 20;
#X obj 412 1005 dac~;
#X obj 417 965 clip~ -1 1;
#X obj 572 801 r initbang;
#X obj 572 885 mtof~;
#X obj 572 861 sig~;
#X obj 572 939 *~, f 14;
#X obj 650 855 line~;
#X msg 650 830 \$1 20;
#X obj 567 1006 dac~;
#X obj 572 966 clip~ -1 1;
#X obj 729 802 r initbang;
#X obj 729 886 mtof~;
#X obj 729 862 sig~;
#X obj 729 940 *~, f 14;
#X obj 807 856 line~;
#X msg 807 831 \$1 20;
#X obj 724 1007 dac~;
#X obj 729 967 clip~ -1 1;
#X obj 884 803 r initbang;
#X obj 884 887 mtof~;
#X obj 884 863 sig~;
#X obj 884 941 *~, f 14;
#X obj 962 857 line~;
#X msg 962 832 \$1 20;
#X obj 879 1008 dac~;
#X obj 884 968 clip~ -1 1;
#X obj 577 587 int 50;
#X obj 734 588 int 52;
#X obj 889 589 int 53;
#X obj 417 829 int 55;
#X obj 572 830 int 57;
#X obj 729 831 int 59;
#X obj 884 832 int 60;
#X obj 422 667 osc~;
#X obj 578 672 osc~;
#X obj 734 672 osc~;
#X obj 889 674 osc~;
#X obj 417 909 osc~;
#X obj 572 909 osc~;
#X obj 729 910 osc~;
#X obj 884 911 osc~;
#X obj 655 559 r fader2;
#X obj 812 560 r fader3;
#X obj 967 561 r fader4;
#X obj 495 801 r fader5;
#X obj 650 802 r fader6;
#X obj 807 803 r fader7;
#X obj 962 804 r fader8;
#X obj 26 48 r a1 @hv_param;
#X obj 151 48 r a2 @hv_param;
#X obj 26 122 r a3 @hv_param;
#X obj 157 122 r a4 @hv_param;
#X obj 26 198 r a5 @hv_param;
#X obj 157 198 r a6 @hv_param;
#X obj 157 269 r a8 @hv_param;
#X obj 161 374 r d1 @hv_param;
#X obj 30 374 r d2 @hv_param;
#X obj 31 463 r d3 @hv_param;
#X obj 161 463 r d4 @hv_param;
#X obj 161 557 r d6 @hv_param;
#X obj 31 653 r d7 @hv_param;
#X obj 158 653 r d8 @hv_param;
#X obj 30 589 change;
#X obj 30 619 s b5;
#X obj 30 557 r d5 @hv_param;
#X obj 31 525 s b3;
#X obj 161 497 change;
#X obj 161 527 s b4;
#X obj 161 619 s b6;
#X obj 31 715 s b7;
#X obj 158 715 s b8;
#X obj 437 53 r initbang;
#X obj 437 141 mtof~;
#X obj 437 82 int 48;
#X obj 437 113 sig~;
#X obj 437 191 *~, f 14;
#X obj 515 107 line~;
#X msg 515 82 \$1 20;
#X obj 432 258 dac~;
#X obj 437 218 clip~ -1 1;
#X obj 592 54 r initbang;
#X obj 592 142 mtof~;
#X obj 592 114 sig~;
#X obj 592 192 *~, f 14;
#X obj 670 108 line~;
#X msg 670 83 \$1 20;
#X obj 587 259 dac~;
#X obj 592 219 clip~ -1 1;
#X obj 749 55 r initbang;
#X obj 749 143 mtof~;
#X obj 749 115 sig~;
#X obj 749 193 *~, f 14;
#X obj 827 109 line~;
#X msg 827 84 \$1 20;
#X obj 744 260 dac~;
#X obj 749 220 clip~ -1 1;
#X obj 904 56 r initbang;
#X obj 904 144 mtof~;
#X obj 904 116 sig~;
#X obj 904 194 *~, f 14;
#X obj 982 110 line~;
#X msg 982 85 \$1 20;
#X obj 899 261 dac~;
#X obj 904 221 clip~ -1 1;
#X obj 432 296 r initbang;
#X obj 432 380 mtof~;
#X obj 432 356 sig~;
#X obj 432 434 *~, f 14;
#X obj 510 350 line~;
#X msg 510 325 \$1 20;
#X obj 427 501 dac~;
#X obj 432 461 clip~ -1 1;
#X obj 587 297 r initbang;
#X obj 587 381 mtof~;
#X obj 587 357 sig~;
#X obj 587 435 *~, f 14;
#X obj 665 351 line~;
#X msg 665 326 \$1 20;
#X obj 582 502 dac~;
#X obj 587 462 clip~ -1 1;
#X obj 744 298 r initbang;
#X obj 744 358 sig~;
#X obj 744 436 *~, f 14;
#X obj 822 352 line~;
#X msg 822 327 \$1 20;
#X obj 739 503 dac~;
#X obj 744 463 clip~ -1 1;
#X obj 899 299 r initbang;
#X obj 899 383 mtof~;
#X obj 899 359 sig~;
#X obj 899 437 *~, f 14;
#X obj 977 353 line~;
#X msg 977 328 \$1 20;
#X obj 894 504 dac~;
#X obj 899 464 clip~ -1 1;
#X obj 592 83 int 50;
#X obj 749 84 int 52;
#X obj 904 85 int 53;
#X obj 432 325 int 55;
#X obj 587 326 int 57;
#X obj 744 327 int 59;
#X obj 899 328 int 60;
#X obj 437 163 osc~;
#X obj 593 168 osc~;
#X obj 749 168 osc~;
#X obj 904 170 osc~;
#X obj 432 405 osc~;
#X obj 587 405 osc~;
#X obj 899 407 osc~;
#X obj 515 54 r b1;
#X obj 670 55 r b2;
#X obj 827 56 r b3;
#X obj 982 57 r b4;
#X obj 510 297 r b5;
#X obj 665 298 r b6;
#X obj 822 299 r b7;
#X obj 977 300 r b8;
#X obj 26 269 r a7 @hv_param;
#X connect 0 0 1 0;
#X connect 2 0 7 0;
#X connect 3 0 127 0;
#X connect 4 0 128 0;
#X connect 5 0 126 0;
#X connect 6 0 123 0;
#X connect 8 0 9 0;
#X connect 18 0 20 0;
#X connect 19 0 91 0;
#X connect 20 0 21 0;
#X connect 21 0 19 0;
#X connect 22 0 26 0;
#X connect 23 0 22 1;
#X connect 24 0 23 0;
#X connect 26 0 25 0;
#X connect 26 0 25 1;
#X connect 27 0 24 0;
#X connect 28 0 84 0;
#X connect 29 0 92 0;
#X connect 30 0 29 0;
#X connect 31 0 35 0;
#X connect 32 0 31 1;
#X connect 33 0 32 0;
#X connect 35 0 34 0;
#X connect 35 0 34 1;
#X connect 36 0 85 0;
#X connect 37 0 93 0;
#X connect 38 0 37 0;
#X connect 39 0 43 0;
#X connect 40 0 39 1;
#X connect 41 0 40 0;
#X connect 43 0 42 0;
#X connect 43 0 42 1;
#X connect 44 0 86 0;
#X connect 45 0 94 0;
#X connect 46 0 45 0;
#X connect 47 0 51 0;
#X connect 48 0 47 1;
#X connect 49 0 48 0;
#X connect 51 0 50 0;
#X connect 51 0 50 1;
#X connect 52 0 87 0;
#X connect 53 0 95 0;
#X connect 54 0 53 0;
#X connect 55 0 59 0;
#X connect 56 0 55 1;
#X connect 57 0 56 0;
#X connect 59 0 58 0;
#X connect 59 0 58 1;
#X connect 60 0 88 0;
#X connect 61 0 96 0;
#X connect 62 0 61 0;
#X connect 63 0 67 0;
#X connect 64 0 63 1;
#X connect 65 0 64 0;
#X connect 67 0 66 0;
#X connect 67 0 66 1;
#X connect 68 0 89 0;
#X connect 69 0 97 0;
#X connect 70 0 69 0;
#X connect 71 0 75 0;
#X connect 72 0 71 1;
#X connect 73 0 72 0;
#X connect 75 0 74 0;
#X connect 75 0 74 1;
#X connect 76 0 90 0;
#X connect 77 0 98 0;
#X connect 78 0 77 0;
#X connect 79 0 83 0;
#X connect 80 0 79 1;
#X connect 81 0 80 0;
#X connect 83 0 82 0;
#X connect 83 0 82 1;
#X connect 84 0 30 0;
#X connect 85 0 38 0;
#X connect 86 0 46 0;
#X connect 87 0 54 0;
#X connect 88 0 62 0;
#X connect 89 0 70 0;
#X connect 90 0 78 0;
#X connect 91 0 22 0;
#X connect 92 0 31 0;
#X connect 93 0 39 0;
#X connect 94 0 47 0;
#X connect 95 0 55 0;
#X connect 96 0 63 0;
#X connect 97 0 71 0;
#X connect 98 0 79 0;
#X connect 99 0 33 0;
#X connect 100 0 41 0;
#X connect 101 0 49 0;
#X connect 102 0 57 0;
#X connect 103 0 65 0;
#X connect 104 0 73 0;
#X connect 105 0 81 0;
#X connect 106 0 10 0;
#X connect 107 0 11 0;
#X connect 108 0 12 0;
#X connect 109 0 13 0;
#X connect 110 0 14 0;
#X connect 111 0 15 0;
#X connect 112 0 17 0;
#X connect 113 0 2 0;
#X connect 114 0 0 0;
#X connect 115 0 6 0;
#X connect 116 0 124 0;
#X connect 117 0 5 0;
#X connect 118 0 3 0;
#X connect 119 0 4 0;
#X connect 120 0 121 0;
#X connect 122 0 120 0;
#X connect 124 0 125 0;
#X connect 129 0 131 0;
#X connect 130 0 200 0;
#X connect 131 0 132 0;
#X connect 132 0 130 0;
#X connect 133 0 137 0;
#X connect 134 0 133 1;
#X connect 135 0 134 0;
#X connect 137 0 136 0;
#X connect 137 0 136 1;
#X connect 138 0 193 0;
#X connect 139 0 201 0;
#X connect 140 0 139 0;
#X connect 141 0 145 0;
#X connect 142 0 141 1;
#X connect 143 0 142 0;
#X connect 145 0 144 0;
#X connect 145 0 144 1;
#X connect 146 0 194 0;
#X connect 147 0 202 0;
#X connect 148 0 147 0;
#X connect 149 0 153 0;
#X connect 150 0 149 1;
#X connect 151 0 150 0;
#X connect 153 0 152 0;
#X connect 153 0 152 1;
#X connect 154 0 195 0;
#X connect 155 0 203 0;
#X connect 156 0 155 0;
#X connect 157 0 161 0;
#X connect 158 0 157 1;
#X connect 159 0 158 0;
#X connect 161 0 160 0;
#X connect 161 0 160 1;
#X connect 162 0 196 0;
#X connect 163 0 204 0;
#X connect 164 0 163 0;
#X connect 165 0 169 0;
#X connect 166 0 165 1;
#X connect 167 0 166 0;
#X connect 169 0 168 0;
#X connect 169 0 168 1;
#X connect 170 0 197 0;
#X connect 171 0 205 0;
#X connect 172 0 171 0;
#X connect 173 0 177 0;
#X connect 174 0 173 1;
#X connect 175 0 174 0;
#X connect 177 0 176 0;
#X connect 177 0 176 1;
#X connect 178 0 198 0;
#X connect 179 0 180 0;
#X connect 180 0 184 0;
#X connect 181 0 180 1;
#X connect 182 0 181 0;
#X connect 184 0 183 0;
#X connect 184 0 183 1;
#X connect 185 0 199 0;
#X connect 186 0 206 0;
#X connect 187 0 186 0;
#X connect 188 0 192 0;
#X connect 189 0 188 1;
#X connect 190 0 189 0;
#X connect 192 0 191 0;
#X connect 192 0 191 1;
#X connect 193 0 140 0;
#X connect 194 0 148 0;
#X connect 195 0 156 0;
#X connect 196 0 164 0;
#X connect 197 0 172 0;
#X connect 198 0 179 0;
#X connect 199 0 187 0;
#X connect 200 0 133 0;
#X connect 201 0 141 0;
#X connect 202 0 149 0;
#X connect 203 0 157 0;
#X connect 204 0 165 0;
#X connect 205 0 173 0;
#X connect 206 0 188 0;
#X connect 207 0 135 0;
#X connect 208 0 143 0;
#X connect 209 0 151 0;
#X connect 210 0 159 0;
#X connect 211 0 167 0;
#X connect 212 0 175 0;
#X connect 213 0 182 0;
#X connect 214 0 190 0;
#X connect 215 0 16 0;
