#N canvas 0 26 1920 1022 12;
#X obj 338 603 * 2;
#X obj 234 662 <;
#X obj 189 662 >;
#X obj 267 521 i 0;
#X obj 189 689 &&, f 10;
#X obj 327 662 <;
#X obj 282 662 >;
#X obj 282 689 &&, f 10;
#X obj 423 662 <;
#X obj 378 662 >;
#X obj 378 689 &&, f 10;
#X obj 516 662 <;
#X obj 471 662 >;
#X obj 471 689 &&, f 10;
#X obj 434 604 * 3;
#X obj 527 603 * 4;
#X obj 267 464 loadbang;
#X obj 314 521 i 1;
#X obj 130 765 spigot, f 12;
#X obj 223 765 spigot, f 12;
#X obj 319 765 spigot, f 12;
#X obj 412 765 spigot, f 12;
#X obj 229 101 pack f f, f 22;
#X obj 229 137 unpack f f, f 22;
#X obj 229 63 r id @hv_param;
#X obj 310 206 s allid;
#X obj 80 566 r allid;
#X obj 130 808 change;
#X obj 223 808 change;
#X obj 319 808 change;
#X obj 412 808 change;
#X obj 229 162 t b f, f 12;
#X obj 229 206 s idb;
#X obj 49 685 r idb;
#X obj 49 714 f, f 10;
#X obj 31 192 osc~;
#X obj 31 298 dac~;
#X obj 31 271 clip~ -1 1;
#X obj 30 228 *~, f 14;
#X obj 124 198 line~;
#X msg 124 171 \$1 20;
#X obj 31 110 line~;
#X msg 31 83 \$1 20;
#X obj 31 139 *~ 220;
#X obj 31 164 +~ 220;
#X obj 380 63 r value @hv_param;
#X obj 380 206 s allval;
#X obj 99 685 r allval;
#X obj 130 837 s Val1;
#X obj 223 837 s Val2;
#X obj 319 836 s Val3;
#X obj 412 837 s Val4;
#X obj 314 557 / 4;
#X obj 31 54 r Val1;
#X obj 124 141 r Val2;
#X obj 797 744 spigot, f 12;
#X obj 890 744 spigot, f 12;
#X obj 986 744 spigot, f 12;
#X obj 1079 744 spigot, f 12;
#X obj 900 540 r allid;
#X obj 797 787 change;
#X obj 890 787 change;
#X obj 986 787 change;
#X obj 1079 787 change;
#X obj 716 664 r idb;
#X obj 716 693 f, f 10;
#X obj 766 664 r allval;
#X obj 797 816 s Val1;
#X obj 890 816 s Val2;
#X obj 986 815 s Val3;
#X obj 1079 816 s Val4;
#X text 402 327 See which one of these 2 methods suits your needs to read values from ESP32;
#X obj 900 568 * 4;
#X obj 892 658 == 0;
#X obj 900 597 int;
#X obj 935 661 == 1;
#X obj 976 661 == 2;
#X obj 1019 664 == 3;
#X text 399 374 ID mapped for DAC \, to be related with arduino ESP32 Sketch;
#X text 58 434 to be recognized N+1>=RoundID>=N here;
#X text 401 399 int RoundID = static_cast<int>(round(((255.0 / 6) * ID) + (255.0 / 12))) \;, f 77;
#X floatatom 1092 536 5 0 0 0 - - - 12;
#X obj 1090 569 int;
#X floatatom 1092 604 5 0 0 0 - - - 12;
#X text 1092 514 try here;
#X text 725 463 to be recognized ID == N here \, make sure the ID \, here or in the sketch \, will get above the desired int value \, values are truncated and not approximated;
#X connect 0 0 5 1;
#X connect 0 0 9 1;
#X connect 1 0 4 1;
#X connect 2 0 4 0;
#X connect 3 0 2 1;
#X connect 4 0 18 1;
#X connect 5 0 7 1;
#X connect 6 0 7 0;
#X connect 7 0 19 1;
#X connect 8 0 10 1;
#X connect 9 0 10 0;
#X connect 10 0 20 1;
#X connect 11 0 13 1;
#X connect 12 0 13 0;
#X connect 13 0 21 1;
#X connect 14 0 8 1;
#X connect 14 0 12 1;
#X connect 15 0 11 1;
#X connect 16 0 3 0;
#X connect 16 0 17 0;
#X connect 17 0 52 0;
#X connect 18 0 27 0;
#X connect 19 0 28 0;
#X connect 20 0 29 0;
#X connect 21 0 30 0;
#X connect 22 0 23 0;
#X connect 23 0 31 0;
#X connect 23 1 46 0;
#X connect 24 0 22 0;
#X connect 26 0 1 0;
#X connect 26 0 2 0;
#X connect 26 0 11 0;
#X connect 26 0 12 0;
#X connect 26 0 8 0;
#X connect 26 0 9 0;
#X connect 26 0 5 0;
#X connect 26 0 6 0;
#X connect 27 0 48 0;
#X connect 28 0 49 0;
#X connect 29 0 50 0;
#X connect 30 0 51 0;
#X connect 31 0 32 0;
#X connect 31 1 25 0;
#X connect 33 0 34 0;
#X connect 34 0 18 0;
#X connect 34 0 19 0;
#X connect 34 0 20 0;
#X connect 34 0 21 0;
#X connect 35 0 38 0;
#X connect 37 0 36 0;
#X connect 37 0 36 1;
#X connect 38 0 37 0;
#X connect 39 0 38 1;
#X connect 40 0 39 0;
#X connect 41 0 43 0;
#X connect 42 0 41 0;
#X connect 43 0 44 0;
#X connect 44 0 35 0;
#X connect 45 0 22 1;
#X connect 47 0 34 1;
#X connect 52 0 0 0;
#X connect 52 0 1 1;
#X connect 52 0 6 1;
#X connect 52 0 14 0;
#X connect 52 0 15 0;
#X connect 53 0 42 0;
#X connect 54 0 40 0;
#X connect 55 0 60 0;
#X connect 56 0 61 0;
#X connect 57 0 62 0;
#X connect 58 0 63 0;
#X connect 59 0 72 0;
#X connect 60 0 67 0;
#X connect 61 0 68 0;
#X connect 62 0 69 0;
#X connect 63 0 70 0;
#X connect 64 0 65 0;
#X connect 65 0 55 0;
#X connect 65 0 56 0;
#X connect 65 0 57 0;
#X connect 65 0 58 0;
#X connect 66 0 65 1;
#X connect 72 0 74 0;
#X connect 73 0 55 1;
#X connect 74 0 73 0;
#X connect 74 0 75 0;
#X connect 74 0 76 0;
#X connect 74 0 77 0;
#X connect 75 0 56 1;
#X connect 76 0 57 1;
#X connect 77 0 58 1;
#X connect 81 0 82 0;
#X connect 82 0 83 0;
