#N canvas 0 26 1920 1022 12;
#X obj 229 101 pack f f, f 22;
#X obj 229 137 unpack f f, f 22;
#X obj 229 63 r id @hv_param;
#X obj 310 206 s allid;
#X obj 229 162 t b f, f 12;
#X obj 229 206 s idb;
#X obj 31 192 osc~;
#X obj 31 298 dac~;
#X obj 31 271 clip~ -1 1;
#X obj 30 228 *~, f 14;
#X obj 124 198 line~;
#X msg 124 171 \$1 20;
#X obj 31 110 line~;
#X msg 31 83 \$1 20;
#X obj 31 139 *~ 220;
#X obj 31 164 +~ 220;
#X obj 380 63 r value @hv_param;
#X obj 380 206 s allval;
#X obj 31 54 r Val1;
#X obj 124 141 r Val2;
#X obj 540 250 spigot, f 12;
#X obj 633 250 spigot, f 12;
#X obj 729 250 spigot, f 12;
#X obj 822 250 spigot, f 12;
#X obj 643 46 r allid;
#X obj 459 170 r idb;
#X obj 459 199 f, f 10;
#X obj 509 170 r allval;
#X obj 540 285 s Val1;
#X obj 633 285 s Val2;
#X obj 729 284 s Val3;
#X obj 822 285 s Val4;
#X obj 643 74 * 4;
#X obj 635 164 == 0;
#X obj 643 103 int;
#X obj 678 167 == 1;
#X obj 719 167 == 2;
#X obj 762 170 == 3;
#X connect 0 0 1 0;
#X connect 1 0 4 0;
#X connect 1 1 17 0;
#X connect 2 0 0 0;
#X connect 4 0 5 0;
#X connect 4 1 3 0;
#X connect 6 0 9 0;
#X connect 8 0 7 0;
#X connect 8 0 7 1;
#X connect 9 0 8 0;
#X connect 10 0 9 1;
#X connect 11 0 10 0;
#X connect 12 0 14 0;
#X connect 13 0 12 0;
#X connect 14 0 15 0;
#X connect 15 0 6 0;
#X connect 16 0 0 1;
#X connect 18 0 13 0;
#X connect 19 0 11 0;
#X connect 20 0 28 0;
#X connect 21 0 29 0;
#X connect 22 0 30 0;
#X connect 23 0 31 0;
#X connect 24 0 32 0;
#X connect 25 0 26 0;
#X connect 26 0 20 0;
#X connect 26 0 21 0;
#X connect 26 0 22 0;
#X connect 26 0 23 0;
#X connect 27 0 26 1;
#X connect 32 0 34 0;
#X connect 33 0 20 1;
#X connect 34 0 33 0;
#X connect 34 0 35 0;
#X connect 34 0 36 0;
#X connect 34 0 37 0;
#X connect 35 0 21 1;
#X connect 36 0 22 1;
#X connect 37 0 23 1;
